<svg width="96" height="24" viewBox="0 0 96 24" fill="none" xmlns="http://www.w3.org/2000/svg" style="fill: rgb(218, 249, 160) !important;"> <path d="M13.7476 5.74648H15.6821V10.4113H12.1755C8.02779 10.4113 5.98739 11.4254 5.98739 14.907V23.662H0V5.74648H5.98739V8.89014H6.15464C7.19156 6.55775 9.70024 5.74648 13.7476 5.74648ZM18.0859 16.5296V5.74648H24.0398V15.5493C24.0398 18.9634 25.9799 19.4366 28.823 19.4366C32.4021 19.4366 34.409 18.2873 34.409 14.7718V5.74648H40.3964V23.662H34.409V20.4845H34.2083C33.138 22.6141 30.8969 24 26.7826 24C21.7987 24 18.0859 22.7493 18.0859 16.5296ZM68.1982 0V23.662H62.2443V20.4845H62.077C60.9732 22.9183 58.3642 24 53.5475 24H52.8116C46.4228 24 42.5427 22.0056 42.5427 15.4141V13.9944C42.5427 7.40282 46.4228 5.40845 52.8116 5.40845H53.5475C58.3642 5.40845 60.9732 6.49014 62.077 8.92394H62.2443V0H68.1982ZM55.3872 19.4366C60.0366 19.4366 62.2443 18.862 62.2443 15.1437V14.2648C62.2443 10.5803 60.0366 9.97183 55.3872 9.97183C50.7043 9.97183 48.5301 10.5803 48.5301 14.2648V15.1437C48.5301 18.862 50.7043 19.4366 55.3872 19.4366ZM84.2594 24H82.0852C74.3919 24 70.3445 22.0056 70.3445 15.4141V13.9944C70.3445 7.40282 74.3919 5.40845 82.0852 5.40845H84.2594C92.0196 5.40845 96 7.40282 96 13.9944V15.4141C96 22.0056 92.0196 24 84.2594 24ZM83.189 19.4366C87.8384 19.4366 90.0461 18.862 90.0461 15.1437V14.2648C90.0461 10.5803 87.8384 9.97183 83.189 9.97183C78.5061 9.97183 76.3319 10.5803 76.3319 14.2648V15.1437C76.3319 18.862 78.5061 19.4366 83.189 19.4366Z" style="fill: rgb(218, 249, 160) !important;"/> </svg>